<svg xmlns="http://www.w3.org/2000/svg" width="278" height="50" viewBox="0 0 278 50"><g fill="#FFF"><path opacity=".5" d="M91.082 29.438L99.01 9.566h9.201L94.312 42.212h-6.608L74 9.566h9.25l7.832 19.872zm28.142-17.914a4.387 4.387 0 0 1-4.405 4.405c-2.447 0-4.405-1.958-4.405-4.405s1.958-4.405 4.405-4.405a4.386 4.386 0 0 1 4.405 4.405zm-.489 30.688h-7.831V20.041h7.831v22.171zm20.067-16.445c-1.468-.734-2.888-1.077-4.258-1.077-1.371 0-2.398.685-2.398 1.566 0 1.027.392 1.224 3.524 1.908 4.454.881 6.46 2.985 6.46 6.607 0 4.992-4.16 8.271-10.572 8.271-3.083 0-5.971-.832-8.859-2.545l2.839-5.53c2.056 1.37 4.454 2.251 6.265 2.251 1.419 0 2.447-.734 2.447-1.713 0-1.126-.587-1.469-3.328-2.056-4.797-.979-6.51-2.643-6.51-6.265 0-4.846 3.867-7.929 9.887-7.929 2.692 0 4.699.392 7.146 1.419l-2.643 5.093zm15.124 6.852c0 2.691 1.322 4.062 4.014 4.062 2.643 0 3.964-1.371 3.964-4.062V20.041h7.831v14.096c0 5.873-4.111 9.006-11.795 9.006-7.734 0-11.845-3.133-11.845-9.006V20.041h7.831v12.578zm45.176-12.578v22.171h-7.831v-2.447c-1.713 2.203-3.866 3.182-6.853 3.182-6.313 0-11.207-5.188-11.207-11.845 0-6.705 4.845-11.795 11.158-11.795 2.839 0 4.943.881 6.901 2.888v-2.154h7.832zm-17.718 11.061c0 2.79 2.3 5.091 5.09 5.091s5.042-2.252 5.042-5.042c0-2.838-2.252-5.09-5.042-5.09-2.839 0-5.09 2.251-5.09 5.041zm30.884 11.11h-7.83V6.336h7.83v35.876z"/><path d="M241.83 20.677c-2.007-2.398-4.404-3.573-7.342-3.573-5.09 0-8.761 3.769-8.761 9.005 0 5.041 3.72 8.762 8.761 8.762 2.79 0 5.139-1.077 7.342-3.427v10.033c-3.965 1.322-5.286 1.615-7.488 1.615-9.838 0-17.474-7.439-17.474-17.032 0-9.544 7.685-17.179 17.278-17.179 2.545 0 4.6.44 7.684 1.664v10.132zm19.039 8.761l7.93-19.871H278l-13.9 32.646h-6.606L243.789 9.566h9.25l7.83 19.872z"/></g><path d="M38.556 18.197c3.771.002 6.824 3.046 6.819 6.803a6.804 6.804 0 0 1-6.816 6.803H17.305a6.804 6.804 0 0 1-6.816-6.802c0-3.757 3.061-6.804 6.813-6.804h21.254zM6.818 13.606C3.047 13.604-.006 10.56 0 6.803A6.804 6.804 0 0 1 6.815 0h42.366C52.948 0 56 3.042 56 6.803c0 3.758-3.06 6.803-6.816 6.803H6.818zm14.317 29.585c0-3.756 3.045-6.798 6.814-6.798 3.768 0 6.817 3.042 6.817 6.798 0 3.76-3.06 6.809-6.814 6.809-3.772-.004-6.82-3.052-6.817-6.809z" fill="#FFF"/></svg>